<?xml version="1.0" standalone="no"?>
<!DOCTYPE svg PUBLIC "-//W3C//DTD SVG 20010904//EN"
 "http://www.w3.org/TR/2001/REC-SVG-20010904/DTD/svg10.dtd">
<svg version="1.0" xmlns="http://www.w3.org/2000/svg"
 width="254.000000pt" height="228.000000pt" viewBox="0 0 254.000000 228.000000"
 preserveAspectRatio="xMidYMid meet">

<g transform="translate(0.000000,228.000000) scale(0.100000,-0.100000)"
fill="#000000" stroke="none">
<path d="M0 1140 l0 -1140 1270 0 1270 0 0 1140 0 1140 -1270 0 -1270 0 0
-1140z m2270 0 l0 -1010 -1007 2 -1008 3 -3 1008 -2 1007 1010 0 1010 0 0
-1010z"/>
<path d="M340 1145 l0 -925 925 0 925 0 0 925 0 925 -925 0 -925 0 0 -925z
m1040 10 l0 -515 -110 0 -110 0 0 508 c0 280 3 512 7 515 3 4 53 7 110 7 l103
0 0 -515z"/>
</g>
</svg>
