<?xml version="1.0" encoding="UTF-8"?><svg id="Camada_1" xmlns="http://www.w3.org/2000/svg" viewBox="0 0 899 200"><defs><style>.cls-1{fill:transparent;}.cls-1,.cls-2,.cls-3{stroke-width:0px;}.cls-2{fill:none;}.cls-3{fill:#fff;}</style></defs><rect class="cls-3" x="158.91" y="63.14" width="15.08" height="73.84"/><rect class="cls-3" x="289.61" y="57.53" width="17.38" height="85.07"/><polygon class="cls-3" points="436.54 57.53 436.54 142.6 428.1 142.6 377.05 89.87 377.05 142.6 360.16 142.6 360.16 57.53 368.49 57.53 419.65 110.26 419.65 57.53 436.54 57.53"/><path class="cls-3" d="M528.85,128.36c8.13,0,14.74-2.57,19.85-7.72,5.11-5.15,7.66-11.99,7.66-20.51s-2.49-15.18-7.48-20.45c-4.99-5.27-11.67-7.9-20.03-7.9s-14.72,2.6-19.79,7.78c-5.07,5.19-7.6,12.05-7.6,20.57s2.49,15.06,7.48,20.33c4.99,5.27,11.62,7.9,19.91,7.9ZM528.85,144.29c-13.43,0-24.31-4.04-32.64-12.12-8.32-8.08-12.49-18.77-12.49-32.04s4.08-23.77,12.25-31.98c8.17-8.2,19.12-12.31,32.88-12.31s24.33,4.06,32.7,12.19c8.37,8.12,12.55,18.82,12.55,32.1s-4.1,23.65-12.31,31.85c-8.2,8.21-19.18,12.31-32.94,12.31Z"/><polygon class="cls-3" points="695.7 57.53 657.57 143.44 648.88 143.44 610.87 57.53 629.45 57.53 653.23 114.72 676.75 57.53 695.7 57.53"/><path class="cls-3" d="M748.59,112.55h27.63l-13.88-32.22-13.76,32.22ZM781.78,126.43h-38.73l-7.24,16.17h-18.22l40.18-85.19h9.29l40.3,85.19h-18.34l-7.24-16.17Z"/><rect class="cls-3" x="91.64" y="24.44" width="4.82" height="151.12"/><rect class="cls-3" x="237.14" y="24.44" width="4.82" height="151.12"/><rect class="cls-3" x="91.64" y="24.44" width="150.32" height="4.82"/><rect class="cls-3" x="91.64" y="170.74" width="150.32" height="4.82"/><rect class="cls-3" x="289.39" y="24.44" width="517.75" height="4.82"/><rect class="cls-3" x="289.39" y="170.74" width="517.75" height="4.82"/><rect class="cls-2" x="91.64" y="24.44" width="715.72" height="151.13"/></svg>