<?xml version="1.0" standalone="no"?>
<!DOCTYPE svg PUBLIC "-//W3C//DTD SVG 20010904//EN"
 "http://www.w3.org/TR/2001/REC-SVG-20010904/DTD/svg10.dtd">
<svg version="1.0" xmlns="http://www.w3.org/2000/svg"
 width="990.000000pt" height="204.000000pt" viewBox="0 0 990.000000 204.000000"
 preserveAspectRatio="xMidYMid meet">

<g transform="translate(0.000000,204.000000) scale(0.100000,-0.100000)"
fill="#000000" stroke="none">
<path d="M21 2014 c-21 -27 -21 -31 -21 -995 0 -956 0 -969 20 -989 20 -20 33
-20 988 -20 926 0 970 1 985 18 16 17 17 100 17 995 0 964 0 977 -20 997 -20
20 -33 20 -984 20 l-965 0 -20 -26z m1915 -68 c12 -17 14 -159 14 -923 0 -890
0 -903 -20 -923 -20 -20 -33 -20 -924 -20 l-905 0 -20 26 c-21 27 -21 31 -21
921 l0 894 25 25 24 24 907 -2 c883 -3 906 -3 920 -22z"/>
<path d="M912 1518 c-9 -9 -12 -134 -12 -499 0 -435 2 -488 16 -493 29 -11
179 -7 192 6 9 9 12 131 12 489 0 421 -2 479 -16 493 -19 20 -173 23 -192 4z"/>
<path d="M2654 2026 c-3 -8 -4 -23 -2 -33 3 -17 139 -18 3613 -18 l3610 0 3
24 c2 13 -2 28 -10 32 -7 5 -1632 9 -3611 9 -3124 0 -3598 -2 -3603 -14z"/>
<path d="M2656 1578 c-14 -20 -16 -89 -16 -558 0 -469 2 -538 16 -558 14 -20
23 -22 119 -22 93 0 105 2 115 19 6 13 10 208 10 565 0 482 -2 546 -16 560
-12 12 -38 16 -114 16 -91 0 -100 -2 -114 -22z"/>
<path d="M3602 1592 c-10 -7 -12 -129 -10 -578 l3 -569 105 -3 c90 -2 107 0
117 15 10 13 13 95 13 340 0 270 2 323 14 323 8 0 159 -153 336 -340 l322
-340 64 0 c58 0 65 2 73 23 4 12 5 267 1 566 -8 630 4 571 -123 571 -115 0
-117 -2 -117 -114 0 -51 -3 -202 -7 -334 l-6 -242 -341 345 -341 346 -45 -1
c-25 0 -51 -4 -58 -8z"/>
<path d="M5737 1584 c-72 -17 -166 -63 -235 -115 -102 -77 -179 -201 -207
-335 -18 -87 -18 -141 0 -229 46 -219 219 -394 445 -451 91 -23 271 -15 359
16 163 58 311 203 366 360 41 116 38 280 -6 392 -69 175 -236 319 -420 363
-79 18 -225 18 -302 -1z m278 -225 c76 -28 147 -96 187 -177 31 -62 33 -73 33
-167 -1 -120 -19 -168 -92 -247 -90 -96 -219 -136 -339 -103 -161 43 -267 184
-267 355 0 100 28 172 95 246 105 115 239 147 383 93z"/>
<path d="M7053 1568 c87 -208 484 -1097 495 -1110 11 -13 30 -18 68 -18 45 0
56 4 68 23 14 23 496 1121 496 1131 0 3 -45 6 -101 6 -130 0 -160 -13 -193
-84 -19 -40 -217 -529 -258 -636 -8 -20 -11 -22 -18 -10 -4 8 -65 155 -135
325 -70 171 -139 325 -152 343 -38 51 -69 62 -183 62 l-100 0 13 -32z"/>
<path d="M9214 1592 c-6 -4 -27 -38 -46 -77 -75 -150 -498 -1054 -498 -1064 0
-7 39 -11 114 -11 l114 0 31 32 c17 18 41 59 53 91 11 32 30 65 42 72 16 12
67 15 261 15 276 0 264 4 300 -95 10 -27 33 -65 51 -82 l32 -33 111 0 c91 0
111 3 111 15 0 24 -519 1119 -537 1133 -18 13 -121 16 -139 4z m233 -729 c-2
-2 -78 -2 -169 -1 l-165 3 78 185 c43 101 81 191 85 200 3 9 39 -63 90 -184
46 -109 83 -201 81 -203z"/>
<path d="M2654 66 c-3 -8 -4 -23 -2 -33 3 -17 139 -18 3613 -18 l3610 0 3 24
c2 13 -2 28 -10 32 -7 5 -1632 9 -3611 9 -3124 0 -3598 -2 -3603 -14z"/>
</g>
</svg>
