<?xml version="1.0" standalone="no"?>
<!DOCTYPE svg PUBLIC "-//W3C//DTD SVG 20010904//EN"
 "http://www.w3.org/TR/2001/REC-SVG-20010904/DTD/svg10.dtd">
<svg version="1.0" xmlns="http://www.w3.org/2000/svg"
 width="414.000000pt" height="130.000000pt" viewBox="0 0 414.000000 130.000000"
 preserveAspectRatio="xMidYMid meet">

<g transform="translate(0.000000,130.000000) scale(0.100000,-0.100000)"
fill="#000000" stroke="none">
<path d="M335 978 c-3 -7 -4 -171 -3 -363 l3 -350 358 0 358 0 0 360 1 360
-357 3 c-280 2 -357 0 -360 -10z m689 -24 c14 -13 16 -58 16 -333 0 -257 -3
-321 -14 -330 -9 -8 -108 -11 -342 -9 l-329 3 -3 337 c-2 314 -1 337 15 341
10 3 158 5 330 6 271 1 314 -1 327 -15z"/>
<path d="M665 778 c-3 -8 -4 -86 -3 -173 l3 -160 30 0 30 0 0 170 0 170 -28 3
c-16 2 -29 -2 -32 -10z"/>
<path d="M1285 980 c-4 -7 430 -10 1294 -10 861 0 1301 3 1301 10 0 7 -438 10
-1294 10 -853 0 -1297 -3 -1301 -10z"/>
<path d="M2380 828 c-133 -38 -188 -208 -104 -329 39 -57 89 -79 176 -79 65 0
80 4 120 29 59 38 91 102 91 181 -2 149 -133 241 -283 198z m159 -94 c36 -30
56 -88 47 -138 -26 -136 -222 -149 -265 -18 -19 56 -7 108 34 149 30 30 38 33
93 33 50 0 66 -4 91 -26z"/>
<path d="M1294 817 c-2 -7 -3 -98 -2 -202 l3 -190 33 -3 32 -3 0 205 0 206
-30 0 c-17 0 -33 -6 -36 -13z"/>
<path d="M1634 817 c-2 -7 -3 -98 -2 -202 l3 -190 30 0 30 0 3 115 c1 63 6
118 10 122 5 5 64 -48 132 -117 67 -69 128 -124 134 -122 8 3 11 66 11 203 l0
199 -30 0 -30 0 -3 -117 c-2 -91 -6 -118 -16 -118 -8 0 -65 54 -128 120 -63
66 -120 120 -127 120 -6 0 -14 -6 -17 -13z"/>
<path d="M2886 821 c-6 -9 145 -363 167 -389 5 -7 16 -12 24 -10 17 4 185 377
178 395 -5 14 -43 17 -62 5 -7 -4 -34 -61 -61 -127 -28 -70 -54 -120 -62 -120
-7 0 -35 52 -65 125 -49 120 -52 125 -82 128 -17 2 -34 -1 -37 -7z"/>
<path d="M3598 723 c-112 -240 -129 -278 -131 -288 -1 -5 14 -10 33 -10 31 0
37 5 53 38 l19 37 96 0 97 0 20 -38 c16 -29 27 -38 53 -40 21 -2 32 1 32 10 1
17 -172 381 -185 390 -25 18 -39 2 -87 -99z m113 -86 c33 -78 31 -80 -52 -75
-62 3 -63 5 -23 93 13 31 29 55 35 53 6 -2 24 -34 40 -71z"/>
<path d="M1290 270 c0 -7 438 -10 1295 -10 857 0 1295 3 1295 10 0 7 -438 10
-1295 10 -857 0 -1295 -3 -1295 -10z"/>
</g>
</svg>
